<?xml version="1.0" encoding="UTF-8"?>
<!DOCTYPE svg PUBLIC "-//W3C//DTD SVG 1.1//EN" "http://www.w3.org/Graphics/SVG/1.1/DTD/svg11.dtd">
<!-- Creator: CorelDRAW 2020 (64-Bit) -->
<svg xmlns="http://www.w3.org/2000/svg" xml:space="preserve" width="105mm" height="32mm" version="1.1" style="shape-rendering:geometricPrecision; text-rendering:geometricPrecision; image-rendering:optimizeQuality; fill-rule:evenodd; clip-rule:evenodd"
viewBox="0 0 10500 3200"
 xmlns:xlink="http://www.w3.org/1999/xlink"
 xmlns:xodm="http://www.corel.com/coreldraw/odm/2003">
 <defs>
  <style type="text/css">
   <![CDATA[
    .str0 {stroke:#F0C43A;stroke-width:30;stroke-miterlimit:22.9256}
    .fil2 {fill:#FEFEFE}
    .fil1 {fill:#2a3545}
    .fil0 {fill:#D10024}
   ]]>
  </style>
  <!-- Clip left edge so the yellow stroke on the plate's left vertical is not visible -->
  <clipPath id="logoClipLeft">
   <rect x="40" y="0" width="10460" height="3200"/>
  </clipPath>
 </defs>
 <g id="Capa_x0020_1" clip-path="url(#logoClipLeft)">
  <metadata id="CorelCorpID_0Corel-Layer"/>
  <g id="_2120348917104">
   <!-- Blue plate behind wordmark + track cutouts (matches header wave) -->
   <rect x="0" y="0" width="10500" height="3200" fill="#4A5C78"/>
   <path class="fil0 str0" d="M1005.89 3200.2c-32.16,-41 -64.76,-82.1 -77.48,-98.77 -10.92,-14.29 -20.75,-26.07 -31.12,-40.01 -58.1,-78.08 -127.76,-160.48 -185.47,-241.22 -39.43,-55.15 -74.11,-111.73 -109.23,-177.05 -65.57,-122.01 -119.07,-284.9 -118.72,-450.11 0.37,-174.41 55.41,-318.98 127.27,-443.3 22.99,-39.77 57.91,-91.98 86.05,-127.36 39.86,-50.1 58.93,-70.23 98.31,-115.06l71.27 -70.92c6.57,-5.82 12.01,-9.96 18.08,-16.58l57.04 -50.56c51.92,-43.27 102.82,-85.56 159.49,-124.99 28.37,-19.74 55.63,-39.64 84.81,-59.2 456.14,-305.72 1055.3,-534.6 1582.64,-696.94 272.82,-83.99 548.48,-156.39 827.6,-219.35l0 110.78c-95.6,25.9 -187.66,53.6 -273.12,83.15l204 83.24c22.79,-8.8 45.84,-17.44 69.12,-25.92l0 139.19c-294.87,142.91 -557.93,317.5 -752.82,532.02 -679.09,710.52 -216.62,1281.01 510.36,2008.96l12000 -0.01 0 -1500 -11760 0c-265.31,0 -493.71,-90.77 -686.62,-272.98l-1221.92 -1154.03c-192.91,-182.21 -421.49,-272.98 -686.62,-272.98l-1002.42 0.01 0 3199.99 1009.46 0zm1900.96 0l-1405.71 0c-3.15,-3.77 -6.29,-7.46 -9.74,-10.78l-84.97 -90.02c-26.88,-30.93 -57.62,-60.32 -84.19,-90.92l-102.07 -109.48c-6.66,-7.68 -29.52,-29.24 -31.68,-35.66l1308.82 -106.92c6.74,10.34 37.09,39.91 46.86,51.31 5.73,6.69 8.62,10.59 15.74,17.11l220.59 239c5.37,6.15 10.7,10.45 16.05,16.72l110.3 119.64zm-257.44 -2513.93c18.71,22.83 325,99.06 367.23,108.04 22.47,4.77 36.13,11.48 56.01,1.33 87.3,-44.58 177.51,-96.32 262.82,-143.83 19.04,-11.24 74.91,-38.15 92.51,-51.8 -65.62,-17.18 -143.98,-38.9 -209.12,-57.06 -16.39,-4.56 -32.36,-8.74 -48.79,-13.29 -28.04,-7.77 -22.73,-6.52 -49.35,2.22l-376.11 123.56c-28.02,9.15 -68.24,25.19 -95.2,30.83zm-862.12 381.03c248.08,35.64 475.99,91.89 720.05,140.67 178.57,-169.74 339.77,-286.92 433.68,-344.32 -21.87,-13.46 -271.63,-67.21 -314.71,-76.53 -176.86,-38.25 -137.1,-53.94 -306.53,25.16 -139.98,65.36 -433.34,172.15 -532.49,255.02zm-746.67 639.92l1170.18 92.55c15.35,-92.38 57.22,-198.41 92.45,-276.3 30.34,-67.09 73.46,-145.05 119.15,-201.87 7.76,-9.66 8.73,-8.88 14.71,-17.32 -36.91,-10.46 -69.56,-15.8 -108.88,-21.98 -37.62,-5.91 -74.67,-12.52 -111.79,-19.46 -73.49,-13.73 -146.07,-28.3 -220.05,-40.81 -115.08,-19.48 -218.36,-41.01 -330.63,-61.46 -25.1,-4.57 -67.1,27.18 -87.68,40.7 -45.57,29.95 -173.27,125.55 -221.63,168.61 -11.82,10.54 -24.28,19.64 -35.73,29.94l-201.44 190.65c-24.12,26.34 -79.89,86.78 -78.66,116.75zm-190.95 474.88c-0.38,160.56 58.65,295.86 143.03,420.99 7.55,11.19 25.83,38.86 34.42,46.21l1326.99 -123.56c-217.62,-345 -133.95,-545.27 -158.54,-547.41l-1271.13 -110.8 -28.05 68.98c-29.27,81.56 -46.5,154.29 -46.72,245.59z"/>
   <g>
    <path class="fil1" d="M4396.43 318.79c-110.36,4.9 -214,37.96 -294.73,103.31l-35.42 30.6c-6.18,5.41 -11.19,10.22 -16.87,16.16 -3.01,3.14 -5.04,5.33 -7.92,8.61 -2.91,3.34 -5.82,5.64 -8.74,8.99 -78.55,90.11 -143.38,206.68 -162.9,367.83 -9.87,81.41 -8.31,167.28 9.91,244.81 18.57,79.03 58.28,146.62 105.04,193.46 6.02,6.03 11.36,9.97 17.42,15.63 34.78,32.47 75.07,57.42 119.82,79.53 127.31,62.87 311.34,54.63 436.53,-8.42 30.39,-15.31 57.14,-33.32 80.42,-51.62 6.85,-5.38 11.81,-9.29 17.93,-15.06l17.24 -15.79c50.79,-45.7 110.22,-132.77 137.33,-195.41 28.59,-66.05 47.43,-128.44 57.28,-208.01 9.91,-80.03 9.3,-166.87 -9.49,-242.89 -12.82,-51.85 -32.04,-95.53 -59.99,-138.15 -25.23,-38.48 -59.93,-75.71 -95.93,-103.45 -85.99,-66.24 -190.82,-95.29 -306.93,-90.13zm-7.15 246.65c-67.75,9 -105.51,59.35 -128.42,113.64 -22.48,53.28 -39.91,129.07 -50.67,190.53 -10.91,62.38 -22.9,158.39 -7.25,220.09 18.49,72.88 73.62,103.21 147.3,94.06 70.09,-8.71 101.56,-58.24 125.68,-115.66 24.4,-58.1 37.5,-125.22 49.13,-192.11 15.57,-89.57 45.23,-226.15 -38.85,-288.03 -24.07,-17.72 -59.41,-27.5 -96.92,-22.52z"/>
    <path class="fil1" d="M6242.74 1404.01l302.67 0.03 65.79 -401.63 123.44 -0.03c3.63,2.06 1.07,-2.03 3.25,4.7l4.19 18.61c21.04,92.45 43.78,185.04 64.33,277.32 7.42,33.28 17.12,67.89 23.28,101.03l312.88 0 -113.96 -443.28c51.26,-13.81 124.4,-62.48 156.73,-104.22 24.33,-31.4 41.49,-62.11 52.72,-103.55 22.88,-84.46 16.47,-185.03 -26.56,-261.45 -37.92,-67.36 -103.18,-109.96 -183.44,-130.15 -63.83,-16.05 -123.84,-16.13 -191.82,-16.13 -13.18,0 -403.04,-1.25 -417.11,0.31l-176.39 1058.44zm405.24 -622.24c47.89,0.02 142.03,2.45 184.43,-5.21 54.47,-9.83 94.52,-34.38 104.82,-85.5 5.87,-29.11 1.6,-58.51 -12.78,-78.8 -12.51,-17.63 -31.03,-29.32 -58.48,-36.75 -48.12,-13.03 -128.76,-8.11 -181.98,-8.11l-36.01 214.37z"/>
    <path class="fil1" d="M7373.48 815.81l255.6 51.75c6.71,-20.72 28.9,-46.65 45.62,-60.15 19.14,-15.46 47.73,-26.2 79.74,-27.18 31.68,-0.96 67.14,5.92 81.93,23.7 20.42,24.56 14.26,53.18 4.92,84.99 -5.4,2.16 -175.24,18.19 -197.47,20.72 -67.33,7.65 -123.72,14.53 -181.57,38.38 -58.76,24.21 -97.77,51.33 -128.89,89.54 -71.68,88.04 -79.35,234.44 10.83,316.97 37.63,34.44 82.92,59.54 153.75,65.7 82.34,7.17 153.2,-13.53 211.19,-58.99 26.34,-20.65 46.33,-44.42 65.63,-71.51 3.63,-5.1 7.21,-11.71 11.05,-16.32 0.42,41.68 -11.22,63.07 -4.06,129.98l306.2 0.65c-6.13,-42.55 -9.72,-64.53 -4.47,-109.09 4.04,-34.32 10.03,-68.47 16.14,-102.1 12.18,-66.98 24.09,-133.41 35.34,-200.89 23.55,-141.3 57.93,-264.14 -85.08,-343.11 -104.34,-57.62 -278.64,-63.01 -406.23,-36.36 -66.69,13.93 -139.33,44.81 -181.94,83.54l-29.91 28.45c-16.46,17.34 -53.74,70.88 -58.32,91.33zm441 215.47c-74.09,4.77 -187.58,24.98 -211.05,102.36 -9.08,29.95 -6.92,64.96 11.75,83.27 32.67,32.04 95.26,16.93 133.3,-14.43 5.42,-4.48 10.37,-7.71 14.49,-12.15 30.77,-33.21 47.08,-100.02 51.51,-159.05z"/>
    <path class="fil1" d="M5291.85 744.17l18.86 -122.33 -273.02 -0.36 -130.81 782.54 290.78 0.01c8.03,-55.07 18.28,-110.16 27.39,-164.77l41.15 -246.97c11.73,-70.09 18.36,-170.36 105.82,-183.8 28.39,-4.36 61.5,1.98 74.25,18.25 17.08,21.78 15.12,49.07 10.53,80.44 -8.09,55.17 -18.41,110.8 -27.61,165.6 -9.25,55.15 -18.47,110.02 -27.74,165.29 -9.14,54.39 -20.73,111.66 -27.72,165.97l297.81 -0.01c5.94,-45.13 19.3,-115.55 27.36,-163.34l54.79 -326.05c9,-53.63 22.91,-116.38 10.76,-171.08 -23.73,-106.8 -132.18,-150.69 -236.1,-145.41 -83.95,4.27 -176.76,40.46 -219.51,114.13l-16.99 31.89z"/>
    <path class="fil1" d="M9935.04 802.79l0 -1.49c-4.59,-7.12 -7.5,-18.22 -11.32,-26.07 -3.91,-8.06 -9.01,-16.64 -13.46,-23.35 -28.75,-43.3 -72.86,-75.46 -121.52,-99.49 -133.13,-65.77 -350.98,-73.03 -476.88,12.88 -51.41,35.07 -103.55,92.65 -113.37,181.25 -5.02,45.32 1.38,89.33 19.81,124.91 12.19,23.54 23.64,36.38 39.11,53.57 8.44,9.38 18.86,18.02 28.78,25.86 49.55,39.2 143.95,60.33 217.27,77.42 29.28,6.82 94.05,18.53 115.87,31.34 30.07,17.65 18.37,61.91 -45.01,72.9 -42.7,7.4 -93.95,3.49 -132.72,-9.42 -20.36,-6.79 -33.78,-15.9 -46.64,-27.02 -18.83,-16.3 -20.55,-30.42 -28.93,-44.27l-243.36 35.5c0.83,13.41 13.64,44.65 19.27,56 24.85,50.08 60.67,87.73 111.79,115.61 69.26,37.77 148.71,58.79 240.62,62.01 91.69,3.21 186.59,-7.13 262.2,-40.48 65.85,-29.04 122.83,-83.99 149.21,-153.01 22.18,-58.03 20.5,-132.77 -10.97,-189.57 -48.27,-87.12 -143.46,-118 -237.59,-139.55 -31.13,-7.12 -106.26,-19.76 -125.66,-25.49 -20.61,-6.08 -38.24,-14.49 -47.73,-28.47 -13.22,-19.48 -4.06,-43.07 10.05,-52.94 28.03,-19.61 93.47,-16.56 129.18,-7.61 21.8,5.47 37.35,13.62 51.54,24.72 20.71,16.21 23.21,33.23 30.67,44.52l229.79 -50.26z"/>
    <polygon class="fil1" points="8695.13,1404.01 8993.05,1404.04 9169.13,345.4 8871.52,345.27 "/>
    <polygon class="fil1" points="8228.48,1403.65 8233.23,1404.11 8528.51,1404.04 8532.43,1403.63 8663.28,621.51 8358.95,621.48 "/>
    <polygon class="fil1" points="8371.04,551.44 8674.76,551.53 8713.25,321.68 8409.77,321.47 "/>
   </g>
   <g>
    <path class="fil2" d="M4346.43 268.79c-110.36,4.9 -214,37.96 -294.73,103.31l-35.42 30.6c-6.18,5.41 -11.19,10.22 -16.87,16.16 -3.01,3.14 -5.04,5.33 -7.92,8.61 -2.91,3.34 -5.82,5.64 -8.74,8.99 -78.55,90.11 -143.38,206.68 -162.9,367.83 -9.87,81.41 -8.31,167.28 9.91,244.81 18.57,79.03 58.28,146.62 105.04,193.46 6.02,6.03 11.36,9.97 17.42,15.63 34.78,32.47 75.07,57.42 119.82,79.53 127.31,62.87 311.34,54.63 436.53,-8.42 30.39,-15.31 57.14,-33.32 80.42,-51.62 6.85,-5.38 11.81,-9.29 17.93,-15.06l17.24 -15.79c50.79,-45.7 110.22,-132.77 137.33,-195.41 28.59,-66.05 47.43,-128.44 57.28,-208.01 9.91,-80.03 9.3,-166.87 -9.49,-242.89 -12.82,-51.85 -32.04,-95.53 -59.99,-138.15 -25.23,-38.48 -59.93,-75.71 -95.93,-103.45 -85.99,-66.24 -190.82,-95.29 -306.93,-90.13zm-7.15 246.65c-67.75,9 -105.51,59.35 -128.42,113.64 -22.48,53.28 -39.91,129.07 -50.67,190.53 -10.91,62.38 -22.9,158.39 -7.25,220.09 18.49,72.88 73.62,103.21 147.3,94.06 70.09,-8.71 101.56,-58.24 125.68,-115.66 24.4,-58.1 37.5,-125.22 49.13,-192.11 15.57,-89.57 45.23,-226.15 -38.85,-288.03 -24.07,-17.72 -59.41,-27.5 -96.92,-22.52z"/>
    <path class="fil2" d="M6192.74 1354.01l302.67 0.03 65.79 -401.63 123.44 -0.03c3.63,2.06 1.07,-2.03 3.25,4.7l4.19 18.61c21.04,92.45 43.78,185.04 64.33,277.32 7.42,33.28 17.12,67.89 23.28,101.03l312.88 0 -113.96 -443.28c51.26,-13.81 124.4,-62.48 156.73,-104.22 24.33,-31.4 41.49,-62.11 52.72,-103.55 22.88,-84.46 16.47,-185.03 -26.56,-261.45 -37.92,-67.36 -103.18,-109.96 -183.44,-130.15 -63.83,-16.05 -123.84,-16.13 -191.82,-16.13 -13.18,0 -403.04,-1.25 -417.11,0.31l-176.39 1058.44zm405.24 -622.24c47.89,0.02 142.03,2.45 184.43,-5.21 54.47,-9.83 94.52,-34.38 104.82,-85.5 5.87,-29.11 1.6,-58.51 -12.78,-78.8 -12.51,-17.63 -31.03,-29.32 -58.48,-36.75 -48.12,-13.03 -128.76,-8.11 -181.98,-8.11l-36.01 214.37z"/>
    <path class="fil2" d="M7323.48 765.81l255.6 51.75c6.71,-20.72 28.9,-46.65 45.62,-60.15 19.14,-15.46 47.73,-26.2 79.74,-27.18 31.68,-0.96 67.14,5.92 81.93,23.7 20.42,24.56 14.26,53.18 4.92,84.99 -5.4,2.16 -175.24,18.19 -197.47,20.72 -67.33,7.65 -123.72,14.53 -181.57,38.38 -58.76,24.21 -97.77,51.33 -128.89,89.54 -71.68,88.04 -79.35,234.44 10.83,316.97 37.63,34.44 82.92,59.54 153.75,65.7 82.34,7.17 153.2,-13.53 211.19,-58.99 26.34,-20.65 46.33,-44.42 65.63,-71.51 3.63,-5.1 7.21,-11.71 11.05,-16.32 0.42,41.68 -11.22,63.07 -4.06,129.98l306.2 0.65c-6.13,-42.55 -9.72,-64.53 -4.47,-109.09 4.04,-34.32 10.03,-68.47 16.14,-102.1 12.18,-66.98 24.09,-133.41 35.34,-200.89 23.55,-141.3 57.93,-264.14 -85.08,-343.11 -104.34,-57.62 -278.64,-63.01 -406.23,-36.36 -66.69,13.93 -139.33,44.81 -181.94,83.54l-29.91 28.45c-16.46,17.34 -53.74,70.88 -58.32,91.33zm441 215.47c-74.09,4.77 -187.58,24.98 -211.05,102.36 -9.08,29.95 -6.92,64.96 11.75,83.27 32.67,32.04 95.26,16.93 133.3,-14.43 5.42,-4.48 10.37,-7.71 14.49,-12.15 30.77,-33.21 47.08,-100.02 51.51,-159.05z"/>
    <path class="fil2" d="M5241.85 694.17l18.86 -122.33 -273.02 -0.36 -130.81 782.54 290.78 0.01c8.03,-55.07 18.28,-110.16 27.39,-164.77l41.15 -246.97c11.73,-70.09 18.36,-170.36 105.82,-183.8 28.39,-4.36 61.5,1.98 74.25,18.25 17.08,21.78 15.12,49.07 10.53,80.44 -8.09,55.17 -18.41,110.8 -27.61,165.6 -9.25,55.15 -18.47,110.02 -27.74,165.29 -9.14,54.39 -20.73,111.66 -27.72,165.97l297.81 -0.01c5.94,-45.13 19.3,-115.55 27.36,-163.34l54.79 -326.05c9,-53.63 22.91,-116.38 10.76,-171.08 -23.73,-106.8 -132.18,-150.69 -236.1,-145.41 -83.95,4.27 -176.76,40.46 -219.51,114.13l-16.99 31.89z"/>
    <path class="fil2" d="M9885.04 752.79l0 -1.49c-4.59,-7.12 -7.5,-18.22 -11.32,-26.07 -3.91,-8.06 -9.01,-16.64 -13.46,-23.35 -28.75,-43.3 -72.86,-75.46 -121.52,-99.49 -133.13,-65.77 -350.98,-73.03 -476.88,12.88 -51.41,35.07 -103.55,92.65 -113.37,181.25 -5.02,45.32 1.38,89.33 19.81,124.91 12.19,23.54 23.64,36.38 39.11,53.57 8.44,9.38 18.86,18.02 28.78,25.86 49.55,39.2 143.95,60.33 217.27,77.42 29.28,6.82 94.05,18.53 115.87,31.34 30.07,17.65 18.37,61.91 -45.01,72.9 -42.7,7.4 -93.95,3.49 -132.72,-9.42 -20.36,-6.79 -33.78,-15.9 -46.64,-27.02 -18.83,-16.3 -20.55,-30.42 -28.93,-44.27l-243.36 35.5c0.83,13.41 13.64,44.65 19.27,56 24.85,50.08 60.67,87.73 111.79,115.61 69.26,37.77 148.71,58.79 240.62,62.01 91.69,3.21 186.59,-7.13 262.2,-40.48 65.85,-29.04 122.83,-83.99 149.21,-153.01 22.18,-58.03 20.5,-132.77 -10.97,-189.57 -48.27,-87.12 -143.46,-118 -237.59,-139.55 -31.13,-7.12 -106.26,-19.76 -125.66,-25.49 -20.61,-6.08 -38.24,-14.49 -47.73,-28.47 -13.22,-19.48 -4.06,-43.07 10.05,-52.94 28.03,-19.61 93.47,-16.56 129.18,-7.61 21.8,5.47 37.35,13.62 51.54,24.72 20.71,16.21 23.21,33.23 30.67,44.52l229.79 -50.26z"/>
    <polygon class="fil2" points="8645.13,1354.01 8943.05,1354.04 9119.13,295.4 8821.52,295.27 "/>
    <polygon class="fil2" points="8178.48,1353.65 8183.23,1354.11 8478.51,1354.04 8482.43,1353.63 8613.28,571.51 8308.95,571.48 "/>
    <polygon class="fil2" points="8321.04,501.44 8624.76,501.53 8663.25,271.68 8359.77,271.47 "/>
   </g>
  </g>
 </g>
</svg>
